<?xml version="1.0"?>
<svg xmlns="http://www.w3.org/2000/svg" xmlns:xlink="http://www.w3.org/1999/xlink" xmlns:svgjs="http://svgjs.com/svgjs" version="1.1" width="512" height="512" x="0" y="0" viewBox="0 0 512 512" style="enable-background:new 0 0 512 512" xml:space="preserve"><g><path xmlns="http://www.w3.org/2000/svg" d="m217.5 279c0-37.21875-30.28125-67.5-67.5-67.5s-67.5 30.28125-67.5 67.5v22.5h-22.5v150h180v-150h-22.5zm-105 0c0-20.679688 16.820312-37.5 37.5-37.5s37.5 16.820312 37.5 37.5v22.5h-75zm97.5 142.5h-120v-90h120zm0 0" fill="#ffffff" data-original="#000000" style=""/><path xmlns="http://www.w3.org/2000/svg" d="m135 361.5h30v30h-30zm0 0" fill="#ffffff" data-original="#000000" style=""/><path xmlns="http://www.w3.org/2000/svg" d="m335.851562 62-43-62h-220.851562v60h-36v60h-36v392h512v-450zm146.148438 420h-452v-332h174.253906l44 62h233.746094zm-218.253906-300-44-62h-153.746094v-30h174.25l44 62h197.75v30zm36.003906-60-44-62h-153.75v-30h175.148438l43 62h161.851562v30zm0 0" fill="#ffffff" data-original="#000000" style=""/><path xmlns="http://www.w3.org/2000/svg" d="m287 332h150v30h-150zm0 0" fill="#ffffff" data-original="#000000" style=""/><path xmlns="http://www.w3.org/2000/svg" d="m287 392h150v30h-150zm0 0" fill="#ffffff" data-original="#000000" style=""/></g></svg>
