<?xml version="1.0"?>
<svg xmlns="http://www.w3.org/2000/svg" xmlns:xlink="http://www.w3.org/1999/xlink" xmlns:svgjs="http://svgjs.com/svgjs" version="1.1" width="512" height="512" x="0" y="0" viewBox="0 0 512 512" style="enable-background:new 0 0 512 512" xml:space="preserve"><g><g xmlns="http://www.w3.org/2000/svg"><path d="m497 189.991h-71.148c.649-6.367.982-12.771.982-19.166 0-12.644-1.273-25.302-3.783-37.624-1.423-6.986-7.568-12.006-14.698-12.006h-25.519c-.654-1.667-1.34-3.32-2.059-4.959l18.048-18.049c5.042-5.042 5.838-12.938 1.902-18.885-6.943-10.491-14.993-20.341-23.928-29.278-8.943-8.941-18.794-16.992-29.279-23.927-5.947-3.934-13.84-3.137-18.881 1.904l-18.048 18.047c-1.64-.719-3.294-1.405-4.962-2.06v-25.516c0-7.13-5.019-13.274-12.005-14.698-24.635-5.019-50.607-5.019-75.248 0-6.986 1.424-12.005 7.568-12.005 14.698v25.517c-1.667.654-3.322 1.341-4.961 2.06l-18.045-18.045c-5.042-5.041-12.935-5.839-18.881-1.904-10.485 6.935-20.336 14.985-29.282 23.93-8.939 8.941-16.99 18.791-23.927 29.277-3.934 5.947-3.138 13.841 1.904 18.883l18.045 18.045c-.719 1.64-1.406 3.294-2.06 4.962h-25.514c-7.13 0-13.275 5.02-14.698 12.006-2.51 12.325-3.783 24.982-3.783 37.625.001 6.396.333 12.799.982 19.164h-71.149c-8.284 0-15 6.716-15 15v292c0 8.284 6.716 15 15 15h482c8.284 0 15-6.716 15-15v-292c0-8.285-6.716-15.001-15-15.001zm-381.834-19.166c0-6.563.408-13.129 1.215-19.629h23.461c6.631 0 12.475-4.354 14.372-10.707 2.087-6.985 4.9-13.761 8.362-20.139 3.169-5.838 2.122-13.065-2.576-17.763l-16.607-16.607c4.025-5.166 8.379-10.097 13.02-14.737 4.643-4.644 9.574-8.999 14.739-13.022l16.608 16.607c4.697 4.697 11.925 5.747 17.762 2.576 6.381-3.463 13.156-6.276 20.136-8.36 6.355-1.897 10.709-7.741 10.709-14.373v-23.465c12.998-1.615 26.263-1.615 39.259 0v23.465c0 6.632 4.354 12.477 10.709 14.373 6.978 2.083 13.753 4.896 20.139 8.361 5.837 3.17 13.063 2.12 17.761-2.577l16.61-16.609c5.166 4.025 10.097 8.378 14.738 13.019 4.639 4.64 8.995 9.572 13.022 14.742l-16.61 16.61c-4.697 4.697-5.746 11.924-2.577 17.763 3.464 6.382 6.277 13.156 8.361 20.135 1.897 6.353 7.742 10.708 14.373 10.708h23.466c.808 6.5 1.215 13.066 1.215 19.63 0 6.4-.394 12.811-1.167 19.166h-75.555c1.853-6.174 2.83-12.623 2.83-19.166 0-36.914-30.031-66.945-66.944-66.945s-66.945 30.031-66.945 66.945c0 6.543.978 12.992 2.83 19.166h-75.55c-.77-6.352-1.165-12.763-1.166-19.167zm109.287 19.166c-3.508-5.75-5.4-12.372-5.4-19.166 0-20.372 16.573-36.945 36.945-36.945 20.371 0 36.944 16.573 36.944 36.945 0 6.793-1.892 13.414-5.4 19.166zm257.547 292h-452v-262h452z" fill="#fffdfd" data-original="#000000" style=""/><path d="m178.069 380.407c-6.347-5.326-15.807-4.498-21.132 1.848-.975 1.161-2.023 2.243-3.112 3.214-5.602 4.989-12.77 7.519-21.306 7.519-23.157 0-41.997-18.84-41.997-41.996s18.84-41.996 41.997-41.996c8.419 0 16.534 2.477 23.469 7.164 6.865 4.636 16.188 2.832 20.827-4.032 4.638-6.863 2.833-16.188-4.031-20.826-11.915-8.051-25.838-12.306-40.265-12.306-39.699 0-71.997 32.297-71.997 71.996s32.298 71.996 71.997 71.996c15.887 0 30.153-5.227 41.261-15.118 2.17-1.934 4.234-4.063 6.136-6.329 5.326-6.347 4.499-15.808-1.847-21.134z" fill="#fffdfd" data-original="#000000" style=""/><path d="m283.24 337.816c-13.874-5.116-26.799-10.688-30.9-12.482-2.727-2.254-2.631-5.361-2.444-6.664.268-1.869 1.638-6.442 8.54-8.522 14.839-4.468 27.796 4.765 29.616 6.149 4.808 4.839 12.48 5.913 18.528 2.171 7.044-4.36 9.22-13.605 4.86-20.649-4.398-7.105-31.303-25.537-61.657-16.396-16.02 4.825-27.355 17.465-29.583 32.983-2.092 14.58 4.228 28.604 16.496 36.601.662.433 1.357.81 2.08 1.133.661.295 16.382 7.294 34.084 13.822 3.761 1.387 15.919 6.546 14.466 14.683-1.083 6.066-8.551 12.342-19.174 12.342-11.122 0-21.817-4.475-28.61-11.97-5.564-6.139-15.049-6.604-21.188-1.041-6.138 5.563-6.605 15.049-1.041 21.188 12.569 13.87 31.1 21.823 50.839 21.823 24.388 0 44.871-15.59 48.707-37.069 2.891-16.192-4.423-37.333-33.619-48.102z" fill="#fffdfd" data-original="#000000" style=""/><path d="m383.808 281.424c-16.02 4.825-27.355 17.465-29.583 32.983-2.092 14.58 4.228 28.604 16.496 36.601.662.433 1.357.81 2.08 1.133.661.295 16.382 7.294 34.084 13.822 3.761 1.387 15.919 6.546 14.466 14.683-1.083 6.066-8.551 12.342-19.174 12.342-11.122 0-21.817-4.475-28.61-11.97-5.564-6.139-15.049-6.604-21.188-1.041-6.138 5.563-6.604 15.049-1.041 21.188 12.569 13.87 31.1 21.823 50.839 21.823 24.388 0 44.872-15.59 48.707-37.069 2.892-16.192-4.421-37.333-33.618-48.102-13.874-5.116-26.799-10.688-30.9-12.482-2.727-2.254-2.631-5.361-2.444-6.664.268-1.869 1.638-6.442 8.54-8.522 9.909-2.982 19.86-.697 30.423 6.99.728.53 1.357.988 2.132 1.451 7.112 4.25 16.321 1.93 20.57-5.181 4.147-6.94 2.038-15.877-4.674-20.254l-.374-.271c-22.928-16.689-43.504-15.444-56.731-11.46z" fill="#fffdfd" data-original="#000000" style=""/></g></g></svg>
