<?xml version="1.0"?>
<svg xmlns="http://www.w3.org/2000/svg" xmlns:xlink="http://www.w3.org/1999/xlink" xmlns:svgjs="http://svgjs.com/svgjs" version="1.1" width="512" height="512" x="0" y="0" viewBox="0 0 512 512" style="enable-background:new 0 0 512 512" xml:space="preserve"><g><g xmlns="http://www.w3.org/2000/svg" fill="#020202"><path d="m380 276c0 5.523438-4.476562 10-10 10s-10-4.476562-10-10 4.476562-10 10-10 10 4.476562 10 10zm0 0" fill="#ffffff" data-original="#020202" style=""/><path d="m340 276c0 5.523438-4.476562 10-10 10s-10-4.476562-10-10 4.476562-10 10-10 10 4.476562 10 10zm0 0" fill="#ffffff" data-original="#020202" style=""/><path d="m140 452h-20c-5.523438 0-10 4.476562-10 10s4.476562 10 10 10h20c5.523438 0 10-4.476562 10-10s-4.476562-10-10-10zm0 0" fill="#ffffff" data-original="#020202" style=""/><path d="m140 10c0 5.523438-4.476562 10-10 10s-10-4.476562-10-10 4.476562-10 10-10 10 4.476562 10 10zm0 0" fill="#ffffff" data-original="#020202" style=""/><path d="m30 20h55c5.523438 0 10-4.476562 10-10s-4.476562-10-10-10h-55c-16.542969 0-30 13.457031-30 30v452c0 16.542969 13.457031 30 30 30h200c16.542969 0 30-13.457031 30-30v-156h150c5.523438 0 10-4.476562 10-10v-180c0-5.523438-4.476562-10-10-10h-150v-96c0-16.542969-13.457031-30-30-30h-55c-5.523438 0-10 4.476562-10 10s4.476562 10 10 10h55c5.515625 0 10 4.484375 10 10v30h-220v-30c0-5.515625 4.484375-10 10-10zm200 472h-200c-5.515625 0-10-4.484375-10-10v-50h220v50c0 5.515625-4.484375 10-10 10zm-80-186v-80h250v80zm250-100h-250v-20h250zm0-40h-250v-20h250zm-160-86v46h-100c-5.523438 0-10 4.476562-10 10v180c0 5.523438 4.476562 10 10 10h100v86h-220v-332zm0 0" fill="#ffffff" data-original="#020202" style=""/></g></g></svg>
